<svg id="Layer_2" data-name="Layer 2" xmlns="http://www.w3.org/2000/svg" viewBox="0 0 431.26 592.52"><defs><style>.cls-1{fill:none;}</style></defs><path class="cls-1" d="M220,.08C249.89-.24,289.2-.65,329.42,22.9c34.38,20.15,53.71,48.61,68.73,70.73,9.78,14.41,14.84,25.56,17.94,33.71A179.49,179.49,0,0,1,425,163.8c3.56,27.75,6.58,123.05,6.19,252.45a85.43,85.43,0,0,1-8.94,22,87.63,87.63,0,0,1-29.58,30.26c2.54-27.95,4.42-57.1,5.45-87.36a1556.44,1556.44,0,0,0-5.45-193.3,204.89,204.89,0,0,0-16.51-67.41A202.89,202.89,0,0,0,355.56,84a400.17,400.17,0,0,1,24.3,60.53C400,209.64,399.63,267.9,395.45,308.25c-3-24.94-7.2-51.31-12.84-78.87A991.25,991.25,0,0,0,339.05,78.5a578.55,578.55,0,0,1,22,94.93c2.63,18.15,3.74,33.5,6,64.2,4.39,60.65,1.2,52.17,5.05,118.32,1.66,28.59,3,43.38-1.38,65.58a186.55,186.55,0,0,1-15.13,44.94c.61-16.64,1.77-41.59,4.12-72,1.87-24.1,3.63-40.63,4.13-45.86,2.76-28.76,1.66-73.8-15.59-144.92,2.68,47.52,3.61,90.05,3.67,126.58.11,72.42-3.24,104.81-25.68,132.53a113,113,0,0,1-27.52,24.31A229.45,229.45,0,0,0,312,456.38c13.46-38.68,13.12-71.61,12.38-110.52a616.17,616.17,0,0,0-5.5-71.08,222.45,222.45,0,0,0,20.63-89.43,282.16,282.16,0,0,1-11.92,50,285.14,285.14,0,0,1-39,75.67,245.61,245.61,0,0,0,28.89-77C332,158.27,306,96.72,294.1,72.53c10.7,22.73,21.66,54.75,22.47,93.56a219.8,219.8,0,0,1-.91,25.22,128.85,128.85,0,0,0-17-49.53,127.45,127.45,0,0,0-20.64-26.14A288.32,288.32,0,0,0,260.63,70.7,288.51,288.51,0,0,0,222.1,11.54C228,21,236.33,35,245.49,52.36c18.88,35.84,32.07,60.88,38.07,94a209.2,209.2,0,0,1,.91,67.41,343.23,343.23,0,0,0-25.22-94.47,341,341,0,0,0-28.89-53.65c-.59,19-.42,39.53.92,61.45a672,672,0,0,0,10.08,82.09l-22.47-44c-6.36,5.42-7.58,7-7.33,7.34.66.92,11.44-8.27,29.35-11.47,0,0,2.39-.42,4.79-.68,18.57-2,42.73,13.95,50.7,19.49a91.37,91.37,0,0,0-33-11.47,92.67,92.67,0,0,0-48.61,6.42,65.13,65.13,0,0,1,34.84-7.29,63.39,63.39,0,0,1,20.19,5l11.46,38.06a56.18,56.18,0,0,0-55,16.05A50.41,50.41,0,0,1,246,217.45c4.69-1,23.38-5.06,37.61,7.34,12.26,10.7,12.79,26.31,12.84,29.35l12.84-18.34a34,34,0,0,0-8.26-17c-11.86-12.8-34.59-15-56.71-5.09a57.8,57.8,0,0,0-2.45,28.48c1.27,7.35,3.43,19.89,11.47,22.93,9.84,3.71,25.2-8.08,30.27-22,3.55-9.77,5.14-27.12-6.53-35.3-10.67-7.48-28.51-4.59-39,9.22A362.81,362.81,0,0,1,203.3,70.7q.91,30.27,1.84,60.54a123.19,123.19,0,0,0,6.42,114.19,139.86,139.86,0,0,1-24.77-34.86c-19.3-38.65-15.14-75.94-12.38-91.72a152.55,152.55,0,0,0,6.42,88.05q3,29.58,6,59.16a182,182,0,0,1-25.22-39.44c-24.49-52.08-17.52-102.28-12.84-124.74a455.56,455.56,0,0,0-9.17,122.45,39.37,39.37,0,0,1,8.25,12.38c6.22,15,4,37.13-9.17,44.49-6.39,3.57-16.26,4.16-22-.92-4.78-4.21-4.9-10.7-5-18.8-.18-9.62-.39-20.77,7.8-30.27,9.39-10.9,23.08-11.8,26.14-11.92q-1.38-5.5-2.75-11a72.27,72.27,0,0,0-16.51,6c-16.12,8.16-25.05,20.38-29.81,27.06A100.33,100.33,0,0,0,85.9,260.1l10.55,16A61.08,61.08,0,0,1,106.54,245a59.36,59.36,0,0,1,12.84-13.76l16.05-13.3a235.69,235.69,0,0,1-6.88-52.28c-1.1-61,22-108,36.69-132.53-24.42,40.46-33.85,73.32-37.84,96.39-1.65,9.48-3.3,22.69-8.48,54.48-3.51,21.54-6.61,39.19-8.71,50.91a260.43,260.43,0,0,1-3.67-124.28,494.06,494.06,0,0,1-14.68,74.75c-4.06,14.49-7.34,23.5-9.17,38.06a159.29,159.29,0,0,0,3.67,58.25,237.22,237.22,0,0,1-6.42-163.27c-4.78,25-12.29,68.44-15.59,114.65-1.49,20.79-1.93,39.36.45,61.46A307.72,307.72,0,0,0,70.31,328a194.79,194.79,0,0,1-20.18-41.73C31.68,232.54,42,185.15,46.92,163.8a255.48,255.48,0,0,1,28-70.63C75,93,47.19,139,36.37,196.81,25.29,256.08,36.05,307.37,46,339.9L35.91,329.35a284.53,284.53,0,0,0,2.75,82.55c5.05,27.66,9.4,51.43,28,74.29,16.34,20.1,36.19,30.27,48.61,35.31a328,328,0,0,1-16-29.35c-28.75-59.61-34.42-117.72-33.48-161,2.18,24.63,6.29,60.64,14.22,98.14,2.32,11,5.73,25.7,18.34,36.69,9.82,8.56,21.16,11.35,28.43,12.38a149.89,149.89,0,0,1-28.89-37.6C90.69,427.54,84.75,411.58,79.94,378a500.83,500.83,0,0,1-4.13-98.6l12.84-4.12c1,6.15,2.39,15.36,3.67,26.59,3.72,32.58,1.61,38.79,6.88,50.91,5.38,12.37,13.52,19.57,26.14,30.72,5.42,4.8,5.65,4.27,37.6,26.6,14.12,9.87,14.93,10.57,17.89,11.47,5.34,1.62,14.82,3,46.32-11.47,19.23-8.84,32.35-14.88,48.15-27.51,15.38-12.3,25.27-24.44,32.56-33.48a250.65,250.65,0,0,0,15.86-22q-1.28,36-2.56,72a31.23,31.23,0,0,0-11.46,7.33c-8.54,8.76-9.18,20.73-9.63,26.14-3,35.6-22.06,66.74-27.52,75.67a154.31,154.31,0,0,1-20.18,26.14l6-.51q-5.28,15.15-10.55,30.32l15.14-12.84-16.05,36.23,88.05,3.72q6.65-27.07,13.3-54.16l8.25,5.5q.24-6,.46-11.93l7.8-3.21c.21-12.57.8-23.16,1.37-31.18,1.32-18.37,2.69-25,6.42-26.14,2.56-.8,5.52,1.18,7.8,3.21q-3.68-16.28-7.34-32.56l5.51-6.88-6-4.59,25.63,26.6V591.26H189.08l2.76-52.33,75.66-32.56,8.72-15.13a121.89,121.89,0,0,0-27.52,6.87c-26,9.88-39.11,25.33-52.93,20.06-.59-.22-3.38-1.94-9-5.38-8.32-5.12-14.95-9.48-19.26-12.38l-14.22,12.84,35.32,22.93q-3.67,27.54-7.34,55.08H127.17l9.63-19.77,10.09.92q-1.53-9.63-3-19.26l9.17,2.14a145.13,145.13,0,0,1,11.92-94.48,6.93,6.93,0,0,1-6.72-2.75,7.07,7.07,0,0,1,.91-8.86,62.64,62.64,0,0,0-19,2.44c-9.09,2.65-15.39,6.79-17.43,4.59-1.46-1.57.1-5.45.61-6.73a12.81,12.81,0,0,1,4.28-5.5,29.68,29.68,0,0,0-12.53,2.45,29.37,29.37,0,0,0-7.34,4.58c-13,9.84-29.59,26-38.52,50.14A100.35,100.35,0,0,0,66.18,511c2-.83,4.48-1.46,6.11-.31,4.48,3.15-.5,17.46-4,27.21A206.11,206.11,0,0,1,51.5,573.63c1.73,0,3.73.42,4.9,1.83,2.63,3.2-.26,10-4,13.46-6.71,6.2-17.44,2.56-18,2.34l-.3-71.74q8.72-6.42,17.52-13,9.07-6.79,17.94-13.58A286.12,286.12,0,0,1,32.77,386.83a281,281,0,0,1-1.44-61.76C20.68,307.15-2,263.38.14,204.15.76,187.06,3.71,129,47.38,76.2a208.31,208.31,0,0,1,82.54-60.07A279,279,0,0,1,220,.08Z"/></svg>