<svg id="Layer_1" data-name="Layer 1" xmlns="http://www.w3.org/2000/svg" xmlns:xlink="http://www.w3.org/1999/xlink" viewBox="0 0 496.87 391.16"><defs><style>.cls-1{fill:none;stroke:#231f20;stroke-miterlimit:10;}</style></defs><image width="564" height="444" transform="scale(0.88)" xlink:href="Screenshot%202022-03-25%20195827.png"/><path class="cls-1" d="M265.8,363.23c-68.32-.24-102.48-.36-139-16.05C102.8,336.84,60,318.43,42,272.89c-18.34-46.42,1.08-90.74,6.19-101.58L75.48,205a448.23,448.23,0,0,1,146.29,37.15,126.63,126.63,0,0,0-28.89-20.64C169,209.18,146.41,207.41,111.48,205c-14.84-1-27.1-1.18-35.31-1.14L48.88,169.7a220.87,220.87,0,0,1,54.57-78.88C151.69,46.44,205.66,37.49,225.9,34.41c19.76-3,83.88-11.75,150.88,25.23,75.42,41.62,101.73,112.08,107.77,129.78L445,209.19c-12.11-.7-51.8-2.39-87,7.29A337.39,337.39,0,0,0,324.67,228c-11,4.52-20.18,9-27.23,12.79C320,233.93,345,227.43,372.19,222c24.07-4.82,46.8-8.2,67.88-10.55L484.78,191a133.37,133.37,0,0,1,4.81,31.41c.23,7.06,1.11,54-29.35,89.88-26.83,31.6-63.86,37.91-113.27,46.32C319,363.42,299,363.35,265.8,363.23Z"/></svg>