<svg id="Layer_1" data-name="Layer 1" xmlns="http://www.w3.org/2000/svg" viewBox="0 0 366.99 569.3"><path d="M367,255.84V568.36c-17.77.14-35.55.25-53.32.44-6.45.08-6.7-3.85-6-8.69,1.79-12.55,3-25.19,6.7-37.39,1.18-3.93-.64-10.19,4.13-11.23,4.61-1,3.71,6.24,7.21,8.75,1.77-4.88-.34-12,4.3-14.08,5.06-2.28,4.34-5.25,4.21-8.83-.6-15.71-.36-31.34,5.45-46.27.95-2.45.49-7.18,6.07-3.95,3.8,2.21,3.72-1.1,3-3.72-1.85-6.76-3.71-13.51-5.68-20.23-1.62-5.5-2.44-10.65,5-13-9.06-6.27-10.17-5.94-12.14,3.06-.46,2.11-.71,4.27-1.27,6.35-2.54,9.5-5.61,18.78-11.24,27.4-1.57-1.92-.87-3.24-.54-4.47,3.91-14.52,3.86-29.35,3.54-44.21-.05-2,.74-5-1.7-5.74-2.86-.87-3,2.47-3.92,4.15-3,5.42-5.71,11-8.67,16.46A178.55,178.55,0,0,1,268,466.62c0-1.52-.26-2.4,0-3,13.95-26,18.19-54.49,22.11-83.12.21-1.52,1-3.42-.81-4.34s-3,.61-4.24,1.63C281.32,381,278,384.4,276,389a265.36,265.36,0,0,0-15.18,43.48c-6.37,25.15-12.9,50.22-28.87,71.51-3.19,4.26-9,7.84-4.52,14.85.71,1.12-1.16,3.95-1.9,6-1.07,2.9-2.21,5.78-3.53,9.21,4.82-.8,6.62-5.39,11.93-4.82-7,12.68-9.39,26.87-18.34,38.15,2.7-9.9,7.58-19,10.17-29.4-5,1.06-4.74,7.24-10,7.75.36-7.4,3.67-13.59,6-20,.79-2.17,3.29-5.09.83-6.57-5.9-3.56-1.8-6.18.32-8.83,5.94-7.43,12.34-14.54,15.3-24-2.64-.83-4.33.14-6,.82-16.79,6.63-33.26,14.26-50.43,19.63-16.13,5-22.57,14.67-21.84,31.16.41,9.39-1.36,18.88-2.16,28.33-3.29-4.6-2.43-9.3-2-13.93.95-10.2,1.95-20.4,3.09-30.57.32-2.91.36-5.58-2.73-6.83-10.56-4.27-20.05-10.41-29.53-16.6-4.26-2.78-6.39-1-6.57,3.92a84.32,84.32,0,0,0,1.7,20.1c2.28,11.21,2.18,11.23-8.41,8.66-.34,6.19,3.07,12,2.17,18.23-10-3.51-10-3.51-12.49,7.12-.62,2.63-1,5.31-1.78,7.89-1,3.33-3.23,4-5,.91-3-5.34-5.64-10.24-12.51-4.64-.24.2-1-.18-1.47-.29,1.2-5.13-5-9.38-3.35-13.1,2.23-4.91,3.86-13,10.82-12.66,6.26.27,3.78,7.82,5.66,11.93a12.87,12.87,0,0,0,1.41,1.75c1.35-3.53,2.86-7.72,7.07-6.54,9.42,2.65,7.38-2.77,6.47-8.13-.53-3-1.37-7.55,4.05-6.31,6,1.39,4.65-1.79,4.21-5.21a130.56,130.56,0,0,1,.06-33A156.91,156.91,0,0,1,132.88,441c.79-1.68,3.61-5.84-.21-5.52-10.36.86-7-4.51-4.45-10.3-11.37,1.68-21.28,4.9-31.23,8-2,.62-4.61,1.58-6.07-.38-1.74-2.36,1-3.71,2.22-5.34s3.61-2.52,3.24-5.94c-4.46,1.17-8.8,2.22-13.1,3.45-8.55,2.44-8.9,3.51-4.36,10.89,4.16,6.75,9.74,12.18,15.56,17.43,1.45,1.32,4.3,2.74,2.63,5.11-1.49,2.12-4.06.51-5.92-.34-3.9-1.81-7.66-3.93-11.49-5.89-6-3.1-10.58-8.65-18.19-11.62A218.88,218.88,0,0,0,84.9,499c-13.33-4.38-23.78-9.66-32.5-18-9.36-9-9.35-9-17.47,1.56-.94,1.23-2.76,2.25-2,4s2.62,1.63,4.24,1.4c5.42-.78,5.85,2.22,4.94,6.37a191.24,191.24,0,0,1-18.34,49.11c-1.26,2.36-9.72,6.77.81,8.58.46.08,1.06,2,.86,2.81C24.36,559.35,23,564.08,19.5,567c-4,3.38-9.37,2.3-13.93,1.07-4.11-1.11-2.72-5.41-2.74-8.42-.12-18.35,0-36.7-.11-55.05A15.14,15.14,0,0,1,7.55,493.2c7.85-8,17.3-13.72,27-19,5.18-2.81,6.8-5.52,2.32-10.49C29.2,455.21,24.34,445,20.16,434.38,9.63,407.7,6,379.74,4.47,351.32,3.35,331,7.9,310.51,3.33,290.23c-.06-.28.57-.71.9-1.1,3.45,2,1.52,6.78,5.21,9.18-.15-2.05-.17-3.65-.4-5.21-3.39-22.83-4.08-45.64.32-68.43A53.8,53.8,0,0,0,9.8,211c-1.09-17.81-.94-35.7,2.32-53.23,5.64-30.36,15.57-59.44,28.38-87.53,1-2.21,1.61-5,7.06-5.9C15.75,128.4,2,193.42,23.78,262.44c-13.58-61.27-5.62-119.36,25-174.2-10.71,56.88-17.85,113.52,5.36,169.27A261,261,0,0,1,53,192.44C56.26,161,68,131.18,70.37,99.54c.31-4.18,1.06-9.33,7.1-13.25-12,43.17-7.58,84.56,1.06,125.94a12.3,12.3,0,0,0,1.78-6c-.12-14.4,2.46-28.45,5.35-42.46C88.32,150.8,92.3,138,93.56,125,97.2,87.05,108.35,51.62,126,18.09c2-3.71,3.22-8.35,8.75-9.38C117,38.17,104.52,70,100,103.48s-3.2,67.92,8.89,100.64c-3.19-22.23-4.56-44.67-.86-66.77,3.62-21.66,3.08-43.78,8-65.33-3.1,38.29-.22,75.83,10.4,112.66-.65-22-4.33-43.88-3.41-65.88,1.15-27.29,1.06-56,9.94-64.58-.13,60.08,6.08,119.88,13.42,131.28,5.36-31.92-8.51-63.41-4.16-95.75,2.72,30.13,5.76,60.08,16.91,88.6-2.59-28.25-7.54-56.22-7.34-84.68.26-39.82,5.43-78.45,12.76-84.49-7.55,37.63-11.32,74.53-6.75,111.94,3.65-14.35,6.76-28.81,13.93-42,.89-1.63.1-4.2,0-6.33-.37-9-.79-17.91-1.18-26.86l3.13-.56a315.86,315.86,0,0,0,35.47,143.09c-3.15-24.28-6.39-48.49-8.75-72.81-2.38-24.49-3.92-49-1.87-74.05,29.7,45.54,45.52,96.15,55.3,149.14a211.81,211.81,0,0,0-3.14-68.17c-9.11-44.23-26.16-84.87-53.48-121h4.85c4,5.73,8.22,11.29,11.89,17.21,12.27,19.78,21.64,41,29.65,62.78,2,5.31,3.51,10.86,7.11,15.35,10.42,13,16.68,28.27,23.22,43.33,4.48,10.32,8.32,20.91,12.44,31.39.79-43.14-6.56-84.24-26.57-122.61,12.07,14,17.29,30.87,22,48.17,4.78,17.52,7.51,35.28,9.47,53.27s.12,36-1.61,54c-1.68,17.64-6.62,34.62-10.46,51.83,18.37-29.89,25-63,26.58-98.24,1.94,1.33,2.67,1.58,2.7,1.89a60.25,60.25,0,0,1,.35,7.23,203.22,203.22,0,0,1-17.1,74.44c-1.51,3.45-3.31,6.81-3,10.78,1.64,18.8,3.89,37.57,4.77,56.4,1.46,31.23,3.28,62.5-2.89,93.56-3.16,15.93-6.81,31.73-11.83,48.49,9.53-8,9.56-8,17.25-29.8,17.46-49.55,25.12-100.87,26.95-153.14a341.32,341.32,0,0,0-7.82-83.55c-.28-1.35-1.44-3,1-4.63a226.9,226.9,0,0,1,10.43,38.89,509.2,509.2,0,0,1,6.1,51.33c1.33,22.07,2.08,44.15-.16,66.17-2.75,27-4.79,54-1.47,81.21,13.29-60.75,8.5-122,5.1-183.34-3.42-61.66-10.86-122.6-29.5-181.8C336,131,355.64,212,362.57,296,365.13,282.57,364,269,367,255.84ZM179.29,149c2.13-2.7,7.06-3.63,5.91-8-3-11.43-6.27-22.8-9.77-35.42-10.72,40.62-19.37,79.76,4.42,118-16.4-13.8-21.64-33.28-29.11-54.13-.47,26.82-.26,51.16,4.15,75.44-10-10.24-17-22-22.74-34.49a205.4,205.4,0,0,1-13.16-39c-3.11-13.1-4.52-26.46-6.7-39.72-1.11,15.23-7.12,30.88,4.55,44.89,1.87,2.25,2.75,6.9-1.63,8.09-7.14,1.94-3.59,5.49-2.08,9,.58,1.34,4.57,1.91,1.49,4-3.91,2.6-1.9,5.18-.57,7.6,9.09,16.64,4.12,32.51-2.76,48.09-2.7,6.1-8.24,9.07-15,9.41-6.52.33-9.58-4.39-12.24-9.08-3.71-6.56-3.76-13.93-3.7-21.26,0-2,.8-4.79-2.15-5.34-2.2-.41-3.11,1.83-4,3.43-3.61,6.39-6.7,12.94-6.3,20.59.08,1.49.6,3.6-1.51,4.07-1.75.4-2.87-1.16-3.82-2.47C60.67,250,60.74,246,57,244.14c-.57,6.43,2.76,11.77,3.25,17.66,1.42,16.64,3,33.26,4.58,49.89,1,10.32,2.68,20.62,9.79,28.59,9.13,10.23,18.41,20.38,30,28.11,13,8.66,26.19,17.14,38.31,26.92,8.28,6.69,16.2,8,25.32,3.79,17.88-8.17,35.74-16.39,53.41-25,9.42-4.58,18.49-9.74,26.2-17.25,14.44-14.08,26.38-30.33,39.91-45.19a5.18,5.18,0,0,0,1.26-2.9c.78-13.16-1.7-26-3.7-39.41-7.38,12.67-13,26.14-24.54,36.1-2.35-4.75,1.64-8.23,0-11.63-2.11-1.09-3.73,3.11-5.8-.08,17.47-25.49,25.68-54.29,30.57-84.37,2.1-12.9,1.32-24.8-5.74-36.36s-13-23.81-21.46-35.78c-2.51,9.33,2.34,14.14,9.61,20.17-10.75-3.41-8.91,2.92-9,7.55-.14,7-.14,14-.15,21,0,2.71-.23,6.16,2.58,7.17,5,1.81,7.23,6.13,10.26,9.78,2.88,3.46,9.71,4.25,9.5,8.93-.17,3.92-4.1,7.83-6.8,11.42s-3.14,9.44-9.55,10.44a32.62,32.62,0,0,0-6.49-18.07c-2.21-2.94-4.39-3.16-6,.41-1.88,4.16-3.45,8.46-5.17,12.7-2.24,5.51-4.3,11.07-10.3,13.87-13.54,6.33-25.59-1.36-27-17.41-.37-4.27.45-9.38-4.54-11.18-6.06-2.19-8-5.32-3.94-11-3.76-.28-4.35,4.54-8.1,3.56,1.94-5,5.58-8.19,9.33-11.27,2.92-2.4,2.86-5.51.49-7.76-3-2.88-3.71,1.24-5.23,2.59-.93.84-1.36,2.4-3.5,1.67,1.59-3.29-5-7.18.86-10.18,6.8-3.48,2.16-7.79.89-11.61-1.69-5.11-5.23-3.08-8.54-1.65-5.7,2.46-6.34-1-6.42-5.46-.09-5.29,4.41-8.08,6.71-12C185.14,149.08,182.58,151.74,179.29,149ZM84.85,450.45c-5.16-7.94-11.12-15.24-14.86-24a275.28,275.28,0,0,1-18-60.3c-6.37-35.69-11.16-71.5-6.8-107.73,2-16.7-5.86-30.85-8.12-46.38-4.42,32.61-4.11,64.89,3.74,97-9.69-10.7-14.26-23.66-18.77-36.84s-6.16-26.86-10-41.78c-3.3,32-2.26,61.91,6.68,91.39-4.42-2.68-4.48-8.54-10.12-11.2-1.11,54.48-1,107.49,33.46,153.11C24.59,411.9,24,359.13,32.29,305.75c.1,46,9,90.21,24.43,133.55,2.45-2.28-1.72-5.58,2-7.4C66.59,439.09,74.79,445.94,84.85,450.45Zm161.59,19.74c-.4-4.46-3.44-3.38-6-2.74-21,5.25-41.23,12.52-59,25.16-6.18,4.39-11.78,5.51-18.68,2-7.75-4-15.08-8.33-21-14.86-2.19-2.44-4.95-4-7.61-1-3.86,4.27-9.71,7-11,13.28-.11.55,1.31,1.58,2.18,2.12,9.82,6.12,19.33,12.77,30.21,17,3.19,1.25,6,1.58,9.25.09,23.82-10.73,47.85-21,72.6-29.43C243.22,479.83,244.51,474.89,246.44,470.19Zm-178.19-96c1,7.71,1.35,17.63,1.62,27.57.12,4.12-1.69,10.2,2.58,11.7,3.81,1.34,5.15-5.22,8.22-7.64A36.26,36.26,0,0,0,83.5,403c2.16-2.15,3.42-4.24.12-6.56-1.73-1.21-3.93-2.59-3-5.11,1-2.8,3.87-2.46,6.21-2.61,6.17-.4,14.55,1.37,8.26-9.82-1-1.79.14-4.73.13-7.14,0-2.95.12-6.09-2.42-8.22a158.7,158.7,0,0,1-18.12-18.27c-.86-1-1.81-2.21-3.32-1.62s-1.32,2.2-1.41,3.49C69.38,355.42,68.89,363.72,68.25,374.2ZM225,174.36c15-.91,15-.91,10.89-15.62-.43-1.55-.85-3.12-1.34-4.65-2.83-8.83-16.61-13.92-24.8-9.23-1.65.95-2.68,2.54-1.73,3.94,3,4.54.7,9.48,1.48,14.2,2,12.2,1.76,12.24,13.89,11.51C224,174.47,224.49,174.41,225,174.36ZM202.38,98.25c1,10.82,2.39,21.62,3,32.46.35,6.15,2.77,8.86,8.87,8.49a67.59,67.59,0,0,1,8,.08c5.88.34,6.23-2.34,4.09-6.89C220.51,120,212.45,109,202.38,98.25ZM55.48,233.46c3.82-2.34,6.2-4.52,4.19-7.59-2.54-3.87,0-3.75,2.44-4.46,3.88-1.13,7-3.38,6.5-7.88s-5.14-2-7.55-3.07a4.33,4.33,0,0,1,2.52-4.27c7.18-4,8.15-9.87,6.08-17.17-.71-2.53-.32-5.35-.55-8-.18-2.07.28-4.84-2.25-5.51s-3.64,1.9-4.59,3.74C53.57,196.2,54.79,214.31,55.48,233.46Zm44.46-45.58c-1-4.27-1-8.46-4.5-11.3-2-1.58-3.86-3.36-1.53-6,2.13-2.37,4.39-5.35.5-7.09-4.08-1.83-5.52,2.35-6.2,5.4-1.32,6-2.25,12.08-3,18.17-.36,2.72-2.91,7.29,2.9,6.93C92.66,193.75,98.67,194.61,99.94,187.88Z"/><path d="M367,233.17c-2-3.16-1.51-6.74-1.83-10.21-3.34-36.22-6.69-72.45-17.55-107.44C342,97.44,335,80,324.11,64.3c-1.16-1.67-2.95-3.18-2.44-7.41,7.88,8.14,12.76,16.85,17,25.85C353.2,113.85,360.07,147,364,180.91c.65,5.58,2,11.09,3,16.64Z"/><path d="M84.07,1.62C65.05,13.4,46.81,26.15,31.2,42.41A248.54,248.54,0,0,0,9.51,68.46c-1.51,2.07-2.26,5-5.32,5.72.66-14,37.47-50.36,73.41-72.56Z"/><path d="M303.94,1.62C330,17.67,350,39.66,367,64.77v6.48C359,60.16,351,49,342,38.7c-13-14.76-28.19-26.49-44.48-37.08Z"/></svg>